<?xml version="1.0" standalone="no"?>
<!DOCTYPE svg PUBLIC "-//W3C//DTD SVG 20010904//EN"
 "http://www.w3.org/TR/2001/REC-SVG-20010904/DTD/svg10.dtd">
<svg version="1.0" xmlns="http://www.w3.org/2000/svg"
 width="16.000000pt" height="16.000000pt" viewBox="0 0 16.000000 16.000000"
 preserveAspectRatio="xMidYMid meet">
<metadata>
Created by potrace 1.11, written by Peter Selinger 2001-2013
</metadata>
<g transform="translate(0.000000,16.000000) scale(0.006154,-0.006154)"
fill="#000000" stroke="none">
<path d="M1168 2545 c-2 -2 -25 -6 -53 -9 -164 -21 -358 -96 -510 -197 -215
-143 -383 -350 -474 -583 -67 -171 -84 -264 -85 -461 0 -177 6 -226 50 -373
102 -340 356 -630 685 -780 274 -125 605 -144 904 -51 428 132 757 503 852
959 21 104 24 374 4 465 -95 444 -367 776 -772 944 -74 30 -163 57 -229 67
-19 3 -54 9 -78 14 -39 7 -287 11 -294 5z m377 -234 c257 -67 465 -210 614
-421 45 -64 67 -105 121 -225 11 -25 47 -150 55 -190 14 -76 17 -238 6 -316
-28 -193 -84 -333 -198 -491 -153 -213 -400 -365 -667 -412 -504 -88 -1008
215 -1170 702 -61 182 -70 346 -31 561 11 60 66 204 102 269 153 278 408 465
723 532 118 24 333 20 445 -9z"/>
<path d="M792 1899 c-137 -62 -163 -246 -49 -346 106 -93 268 -57 328 72 80
173 -105 354 -279 274z"/>
<path d="M1635 1901 c-135 -60 -166 -242 -59 -343 131 -122 344 -36 353 143 8
153 -153 262 -294 200z"/>
<path d="M704 1046 c-51 -51 -44 -124 16 -159 25 -15 83 -17 584 -17 l556 0
30 28 c22 19 33 39 37 68 5 36 1 46 -25 75 l-30 34 -567 3 -567 2 -34 -34z"/>
</g>
</svg>
